<svg width="94" height="36" viewBox="0 0 94 36" fill="none" xmlns="http://www.w3.org/2000/svg">
<path d="M11.16 17.408C12.104 17.584 12.88 18.056 13.488 18.824C14.096 19.592 14.4 20.472 14.4 21.464C14.4 22.36 14.176 23.152 13.728 23.84C13.296 24.512 12.664 25.04 11.832 25.424C11 25.808 10.016 26 8.88 26H1.656V9.248H8.568C9.704 9.248 10.68 9.432 11.496 9.8C12.328 10.168 12.952 10.68 13.368 11.336C13.8 11.992 14.016 12.736 14.016 13.568C14.016 14.544 13.752 15.36 13.224 16.016C12.712 16.672 12.024 17.136 11.16 17.408ZM5.016 16.16H8.088C8.888 16.16 9.504 15.984 9.936 15.632C10.368 15.264 10.584 14.744 10.584 14.072C10.584 13.4 10.368 12.88 9.936 12.512C9.504 12.144 8.888 11.96 8.088 11.96H5.016V16.16ZM8.4 23.264C9.216 23.264 9.848 23.072 10.296 22.688C10.76 22.304 10.992 21.76 10.992 21.056C10.992 20.336 10.752 19.776 10.272 19.376C9.792 18.96 9.144 18.752 8.328 18.752H5.016V23.264H8.4ZM40.7115 12.512C42.2955 12.512 43.5755 13.016 44.5515 14.024C45.5275 15.016 46.0155 16.408 46.0155 18.2V26H42.6555V18.656C42.6555 17.6 42.3915 16.792 41.8635 16.232C41.3355 15.656 40.6155 15.368 39.7035 15.368C38.7755 15.368 38.0395 15.656 37.4955 16.232C36.9675 16.792 36.7035 17.6 36.7035 18.656V26H33.3435V12.704H36.7035V14.36C37.1515 13.784 37.7195 13.336 38.4075 13.016C39.1115 12.68 39.8795 12.512 40.7115 12.512ZM64.9303 11.12C64.3383 11.12 63.8423 10.936 63.4423 10.568C63.0583 10.184 62.8663 9.712 62.8663 9.152C62.8663 8.592 63.0583 8.128 63.4423 7.76C63.8423 7.376 64.3383 7.184 64.9303 7.184C65.5223 7.184 66.0103 7.376 66.3943 7.76C66.7943 8.128 66.9943 8.592 66.9943 9.152C66.9943 9.712 66.7943 10.184 66.3943 10.568C66.0103 10.936 65.5223 11.12 64.9303 11.12ZM66.5863 12.704V26H63.2263V12.704H66.5863ZM78.3467 19.304C78.3467 17.96 78.6107 16.768 79.1387 15.728C79.6827 14.688 80.4107 13.888 81.3227 13.328C82.2507 12.768 83.2827 12.488 84.4187 12.488C85.4107 12.488 86.2747 12.688 87.0107 13.088C87.7627 13.488 88.3627 13.992 88.8107 14.6V12.704H92.1947V26H88.8107V24.056C88.3787 24.68 87.7787 25.2 87.0107 25.616C86.2587 26.016 85.3867 26.216 84.3947 26.216C83.2747 26.216 82.2507 25.928 81.3227 25.352C80.4107 24.776 79.6827 23.968 79.1387 22.928C78.6107 21.872 78.3467 20.664 78.3467 19.304ZM88.8107 19.352C88.8107 18.536 88.6507 17.84 88.3307 17.264C88.0107 16.672 87.5787 16.224 87.0347 15.92C86.4907 15.6 85.9067 15.44 85.2827 15.44C84.6587 15.44 84.0827 15.592 83.5547 15.896C83.0267 16.2 82.5947 16.648 82.2587 17.24C81.9387 17.816 81.7787 18.504 81.7787 19.304C81.7787 20.104 81.9387 20.808 82.2587 21.416C82.5947 22.008 83.0267 22.464 83.5547 22.784C84.0987 23.104 84.6747 23.264 85.2827 23.264C85.9067 23.264 86.4907 23.112 87.0347 22.808C87.5787 22.488 88.0107 22.04 88.3307 21.464C88.6507 20.872 88.8107 20.168 88.8107 19.352Z" fill="#106EB0"/>
<path d="M16.2139 19.304C16.2139 17.96 16.4779 16.768 17.0059 15.728C17.5499 14.688 18.2779 13.888 19.1899 13.328C20.1179 12.768 21.1499 12.488 22.2859 12.488C23.2779 12.488 24.1419 12.688 24.8779 13.088C25.6299 13.488 26.2299 13.992 26.6779 14.6V12.704H30.0619V26H26.6779V24.056C26.2459 24.68 25.6459 25.2 24.8779 25.616C24.1259 26.016 23.2539 26.216 22.2619 26.216C21.1419 26.216 20.1179 25.928 19.1899 25.352C18.2779 24.776 17.5499 23.968 17.0059 22.928C16.4779 21.872 16.2139 20.664 16.2139 19.304ZM26.6779 19.352C26.6779 18.536 26.5179 17.84 26.1979 17.264C25.8779 16.672 25.4459 16.224 24.9019 15.92C24.3579 15.6 23.7739 15.44 23.1499 15.44C22.5259 15.44 21.9499 15.592 21.4219 15.896C20.8939 16.2 20.4619 16.648 20.1259 17.24C19.8059 17.816 19.6459 18.504 19.6459 19.304C19.6459 20.104 19.8059 20.808 20.1259 21.416C20.4619 22.008 20.8939 22.464 21.4219 22.784C21.9659 23.104 22.5419 23.264 23.1499 23.264C23.7739 23.264 24.3579 23.112 24.9019 22.808C25.4459 22.488 25.8779 22.04 26.1979 21.464C26.5179 20.872 26.6779 20.168 26.6779 19.352ZM57.0827 26L52.5707 20.336V26H49.2107V8.24H52.5707V18.344L57.0347 12.704H61.4027L55.5467 19.376L61.4507 26H57.0827ZM73.818 15.464V21.896C73.818 22.344 73.922 22.672 74.13 22.88C74.354 23.072 74.722 23.168 75.234 23.168H76.794V26H74.682C71.85 26 70.434 24.624 70.434 21.872V15.464H68.85V12.704H70.434V9.416H73.818V12.704H76.794V15.464H73.818Z" fill="white"/>
</svg>
